FILE "multiTrack.bin" BINARY
  TRACK 01 MODE2/2352
    INDEX 01 00:00:00
  TRACK 02 AUDIO
    INDEX 00 23:24:25
    INDEX 01 23:26:25
  TRACK 03 AUDIO
    PREGAP 00:02:00
    INDEX 01 27:44:50
